# xmcd
#
# Track frame offsets:
#	150
#	16853
#	34112
#	58384
#	81109
#	89800
#	111972
#	126372
#	145366
#	161838
#	181357
#	199650
#	221056
#	250869
#
# Disc length: 3617 seconds
#
# Revision: 1
# Processed by: cddbd v1.5.2PL0 Copyright (c) Steve Scherf et al.
# Submitted via: audiograbber 1.83.01
#
DISCID=d30e1f0e
DTITLE=Errol Johnson - Youniversal Talisman
DYEAR=2013
DGENRE=Blues
TTITLE0=Still Shoppin'
TTITLE1=Open The Gates
TTITLE2=Rockin Ednah
TTITLE3=Because Of Your Love
TTITLE4=Mara's Tune
TTITLE5=Charrington Way
TTITLE6=You Said You Love Me
TTITLE7=L.O.V.E.
TTITLE8=I Was Too Blind
TTITLE9=How Can I
TTITLE10=Marlina (Radio)
TTITLE11=Enjoy yourself
TTITLE12=Return Of The Snake
TTITLE13=Judgment Day Jam
EXTD=
EXTT0=
EXTT1=
EXTT2=
EXTT3=
EXTT4=
EXTT5=
EXTT6=
EXTT7=
EXTT8=
EXTT9=
EXTT10=
EXTT11=
EXTT12=
EXTT13=
PLAYORDER=
